solid CM1 - Bottom inlet
facet normal -0.0 -0.0 1.0
  outer loop
    vertex 37.0 0.0 1.9999999999999998
    vertex 0.0 10.0 1.9999999999999998
    vertex 0.0 0.0 1.9999999999999998
  endloop
endfacet
facet normal -0.0 -0.0 1.0
  outer loop
    vertex 0.0 10.0 1.9999999999999998
    vertex 37.0 0.0 1.9999999999999998
    vertex 8.500000000000002 10.0 1.9999999999999998
  endloop
endfacet
facet normal -0.0 -0.0 1.0
  outer loop
    vertex 8.500000000000002 10.0 1.9999999999999998
    vertex 37.0 0.0 1.9999999999999998
    vertex 8.500000000000002 18.0 1.9999999999999998
  endloop
endfacet
facet normal -0.0 -0.0 1.0
  outer loop
    vertex 8.500000000000002 18.0 1.9999999999999998
    vertex 37.0 0.0 1.9999999999999998
    vertex 28.5 10.0 1.9999999999999998
  endloop
endfacet
facet normal -0.0 -0.0 1.0
  outer loop
    vertex 28.5 10.0 1.9999999999999998
    vertex 37.0 0.0 1.9999999999999998
    vertex 37.0 10.0 1.9999999999999998
  endloop
endfacet
facet normal -0.0 -0.0 1.0
  outer loop
    vertex 28.5 18.0 1.9999999999999998
    vertex 8.500000000000002 18.0 1.9999999999999998
    vertex 28.5 10.0 1.9999999999999998
  endloop
endfacet
facet normal -0.0 1.0 -0.0
  outer loop
    vertex -3.0 10.0 -3.524958103184872e-16
    vertex 2.000000000000001 10.0 -1.9999999999999998
    vertex -3.0 10.0 -1.9999999999999998
  endloop
endfacet
facet normal -0.0 1.0 -0.0
  outer loop
    vertex 2.000000000000001 10.0 -1.9999999999999998
    vertex -3.0 10.0 -3.524958103184872e-16
    vertex 0.0 10.0 -3.524958103184872e-16
  endloop
endfacet
facet normal -0.0 1.0 -0.0
  outer loop
    vertex 2.000000000000001 10.0 -1.9999999999999998
    vertex 0.0 10.0 -3.524958103184872e-16
    vertex 2.000000000000001 10.0 0.0
  endloop
endfacet
facet normal -0.0 1.0 -0.0
  outer loop
    vertex 2.000000000000001 10.0 0.0
    vertex 0.0 10.0 -3.524958103184872e-16
    vertex 0.0 10.0 1.9999999999999998
  endloop
endfacet
facet normal -0.0 1.0 -0.0
  outer loop
    vertex 2.000000000000001 10.0 0.0
    vertex 0.0 10.0 1.9999999999999998
    vertex 8.500000000000002 10.0 0.0
  endloop
endfacet
facet normal -0.0 1.0 -0.0
  outer loop
    vertex 8.500000000000002 10.0 0.0
    vertex 0.0 10.0 1.9999999999999998
    vertex 8.500000000000002 10.0 1.9999999999999998
  endloop
endfacet
facet normal -1.0 0.0 0.0
  outer loop
    vertex 8.500000000000002 18.0 1.9999999999999998
    vertex 8.500000000000002 10.0 0.0
    vertex 8.500000000000002 10.0 1.9999999999999998
  endloop
endfacet
facet normal -1.0 0.0 0.0
  outer loop
    vertex 8.500000000000002 10.0 0.0
    vertex 8.500000000000002 18.0 1.9999999999999998
    vertex 8.500000000000002 18.0 0.0
  endloop
endfacet
facet normal -0.0 1.0 0.0
  outer loop
    vertex 8.500000000000002 18.0 1.9999999999999998
    vertex 28.5 18.0 0.0
    vertex 8.500000000000002 18.0 0.0
  endloop
endfacet
facet normal -0.0 1.0 0.0
  outer loop
    vertex 28.5 18.0 0.0
    vertex 8.500000000000002 18.0 1.9999999999999998
    vertex 28.5 18.0 1.9999999999999998
  endloop
endfacet
facet normal 1.0 0.0 0.0
  outer loop
    vertex 28.5 18.0 0.0
    vertex 28.5 10.0 1.9999999999999998
    vertex 28.5 10.0 0.0
  endloop
endfacet
facet normal 1.0 0.0 0.0
  outer loop
    vertex 28.5 10.0 1.9999999999999998
    vertex 28.5 18.0 0.0
    vertex 28.5 18.0 1.9999999999999998
  endloop
endfacet
facet normal -0.0 1.0 -0.0
  outer loop
    vertex 28.5 10.0 1.9999999999999998
    vertex 35.0 10.0 0.0
    vertex 28.5 10.0 0.0
  endloop
endfacet
facet normal -0.0 1.0 -0.0
  outer loop
    vertex 35.0 10.0 0.0
    vertex 40.0 10.0 -1.9999999999999998
    vertex 35.0 10.0 -1.9999999999999998
  endloop
endfacet
facet normal -0.0 1.0 -0.0
  outer loop
    vertex 40.0 10.0 -1.9999999999999998
    vertex 35.0 10.0 0.0
    vertex 37.0 10.0 -3.524958103184872e-16
  endloop
endfacet
facet normal -0.0 1.0 -0.0
  outer loop
    vertex 37.0 10.0 -3.524958103184872e-16
    vertex 35.0 10.0 0.0
    vertex 37.0 10.0 1.9999999999999998
  endloop
endfacet
facet normal -0.0 1.0 -0.0
  outer loop
    vertex 37.0 10.0 1.9999999999999998
    vertex 35.0 10.0 0.0
    vertex 28.5 10.0 1.9999999999999998
  endloop
endfacet
facet normal -0.0 1.0 -0.0
  outer loop
    vertex 40.0 10.0 -3.524958103184872e-16
    vertex 40.0 10.0 -1.9999999999999998
    vertex 37.0 10.0 -3.524958103184872e-16
  endloop
endfacet
facet normal 0.0 -1.0 0.0
  outer loop
    vertex 40.0 0.0 -3.524958103184872e-16
    vertex 35.0 0.0 -1.9999999999999998
    vertex 40.0 0.0 -1.9999999999999998
  endloop
endfacet
facet normal 0.0 -1.0 0.0
  outer loop
    vertex 35.0 0.0 -1.9999999999999998
    vertex 40.0 0.0 -3.524958103184872e-16
    vertex 37.0 0.0 -3.524958103184872e-16
  endloop
endfacet
facet normal 0.0 -1.0 0.0
  outer loop
    vertex 35.0 0.0 -1.9999999999999998
    vertex 37.0 0.0 -3.524958103184872e-16
    vertex 35.0 0.0 0.0
  endloop
endfacet
facet normal 0.0 -1.0 0.0
  outer loop
    vertex 35.0 0.0 0.0
    vertex 37.0 0.0 -3.524958103184872e-16
    vertex 37.0 0.0 1.9999999999999998
  endloop
endfacet
facet normal 0.0 -1.0 0.0
  outer loop
    vertex 35.0 0.0 0.0
    vertex 37.0 0.0 1.9999999999999998
    vertex 2.000000000000001 0.0 0.0
  endloop
endfacet
facet normal 0.0 -1.0 0.0
  outer loop
    vertex 2.000000000000001 0.0 0.0
    vertex -3.0 0.0 -1.9999999999999998
    vertex 2.000000000000001 0.0 -1.9999999999999998
  endloop
endfacet
facet normal 0.0 -1.0 0.0
  outer loop
    vertex -3.0 0.0 -1.9999999999999998
    vertex 2.000000000000001 0.0 0.0
    vertex 0.0 0.0 -3.524958103184872e-16
  endloop
endfacet
facet normal 0.0 -1.0 0.0
  outer loop
    vertex 0.0 0.0 -3.524958103184872e-16
    vertex 2.000000000000001 0.0 0.0
    vertex 0.0 0.0 1.9999999999999998
  endloop
endfacet
facet normal 0.0 -1.0 0.0
  outer loop
    vertex 0.0 0.0 1.9999999999999998
    vertex 2.000000000000001 0.0 0.0
    vertex 37.0 0.0 1.9999999999999998
  endloop
endfacet
facet normal 0.0 -1.0 0.0
  outer loop
    vertex -3.0 0.0 -3.524958103184872e-16
    vertex -3.0 0.0 -1.9999999999999998
    vertex 0.0 0.0 -3.524958103184872e-16
  endloop
endfacet
facet normal 0.0 0.0 -1.0
  outer loop
    vertex 28.5 18.0 0.0
    vertex 8.500000000000002 10.0 0.0
    vertex 8.500000000000002 18.0 0.0
  endloop
endfacet
facet normal 0.0 0.0 -1.0
  outer loop
    vertex 8.500000000000002 10.0 0.0
    vertex 2.000000000000001 0.0 0.0
    vertex 2.000000000000001 10.0 0.0
  endloop
endfacet
facet normal 0.0 0.0 -1.0
  outer loop
    vertex 2.000000000000001 0.0 0.0
    vertex 8.500000000000002 10.0 0.0
    vertex 8.5 9.0 0.0
  endloop
endfacet
facet normal 0.0 0.0 -1.0
  outer loop
    vertex 8.5 9.0 0.0
    vertex 8.500000000000002 10.0 0.0
    vertex 28.5 9.0 0.0
  endloop
endfacet
facet normal 0.0 0.0 -1.0
  outer loop
    vertex 28.5 9.0 0.0
    vertex 8.500000000000002 10.0 0.0
    vertex 28.5 18.0 0.0
  endloop
endfacet
facet normal 0.0 0.0 -1.0
  outer loop
    vertex 28.5 9.0 0.0
    vertex 28.5 18.0 0.0
    vertex 28.5 10.0 0.0
  endloop
endfacet
facet normal 0.0 0.0 -1.0
  outer loop
    vertex 28.5 9.0 0.0
    vertex 28.5 10.0 0.0
    vertex 35.0 10.0 0.0
  endloop
endfacet
facet normal 0.0 0.0 -1.0
  outer loop
    vertex 28.5 9.0 0.0
    vertex 35.0 10.0 0.0
    vertex 28.5 7.000000000000001 0.0
  endloop
endfacet
facet normal 0.0 0.0 -1.0
  outer loop
    vertex 2.000000000000001 0.0 0.0
    vertex 8.5 7.000000000000001 0.0
    vertex 35.0 0.0 0.0
  endloop
endfacet
facet normal 0.0 0.0 -1.0
  outer loop
    vertex 8.5 7.000000000000001 0.0
    vertex 2.000000000000001 0.0 0.0
    vertex 8.5 9.0 0.0
  endloop
endfacet
facet normal 0.0 0.0 -1.0
  outer loop
    vertex 35.0 0.0 0.0
    vertex 8.5 7.000000000000001 0.0
    vertex 28.5 7.000000000000001 0.0
  endloop
endfacet
facet normal 0.0 0.0 -1.0
  outer loop
    vertex 35.0 0.0 0.0
    vertex 28.5 7.000000000000001 0.0
    vertex 35.0 10.0 0.0
  endloop
endfacet
facet normal 0.0 0.0 -1.0
  outer loop
    vertex 40.0 10.0 -1.9999999999999998
    vertex 35.0 0.0 -1.9999999999999998
    vertex 35.0 10.0 -1.9999999999999998
  endloop
endfacet
facet normal 0.0 0.0 -1.0
  outer loop
    vertex 35.0 0.0 -1.9999999999999998
    vertex 40.0 10.0 -1.9999999999999998
    vertex 40.0 0.0 -1.9999999999999998
  endloop
endfacet
facet normal -1.0 0.0 0.0
  outer loop
    vertex 35.0 10.0 0.0
    vertex 35.0 0.0 -1.9999999999999998
    vertex 35.0 0.0 0.0
  endloop
endfacet
facet normal -1.0 0.0 0.0
  outer loop
    vertex 35.0 0.0 -1.9999999999999998
    vertex 35.0 10.0 0.0
    vertex 35.0 10.0 -1.9999999999999998
  endloop
endfacet
facet normal 0.0 0.0 -1.0
  outer loop
    vertex 2.000000000000001 10.0 -1.9999999999999998
    vertex -3.0 0.0 -1.9999999999999998
    vertex -3.0 10.0 -1.9999999999999998
  endloop
endfacet
facet normal 0.0 0.0 -1.0
  outer loop
    vertex -3.0 0.0 -1.9999999999999998
    vertex 2.000000000000001 10.0 -1.9999999999999998
    vertex 2.000000000000001 0.0 -1.9999999999999998
  endloop
endfacet
facet normal 1.0 0.0 0.0
  outer loop
    vertex 2.000000000000001 10.0 -1.9999999999999998
    vertex 2.000000000000001 0.0 0.0
    vertex 2.000000000000001 0.0 -1.9999999999999998
  endloop
endfacet
facet normal 1.0 0.0 0.0
  outer loop
    vertex 2.000000000000001 0.0 0.0
    vertex 2.000000000000001 10.0 -1.9999999999999998
    vertex 2.000000000000001 10.0 0.0
  endloop
endfacet
facet normal -1.0 0.0 0.0
  outer loop
    vertex 0.0 10.0 1.9999999999999998
    vertex 0.0 0.0 -3.524958103184872e-16
    vertex 0.0 0.0 1.9999999999999998
  endloop
endfacet
facet normal -1.0 0.0 0.0
  outer loop
    vertex 0.0 0.0 -3.524958103184872e-16
    vertex 0.0 10.0 1.9999999999999998
    vertex 0.0 10.0 -3.524958103184872e-16
  endloop
endfacet
facet normal -1.0 0.0 0.0
  outer loop
    vertex -3.0 10.0 -3.524958103184872e-16
    vertex -3.0 0.0 -1.9999999999999998
    vertex -3.0 0.0 -3.524958103184872e-16
  endloop
endfacet
facet normal -1.0 0.0 0.0
  outer loop
    vertex -3.0 0.0 -1.9999999999999998
    vertex -3.0 10.0 -3.524958103184872e-16
    vertex -3.0 10.0 -1.9999999999999998
  endloop
endfacet
facet normal 0.0 -0.0 1.0
  outer loop
    vertex 0.0 0.0 -3.524958103184872e-16
    vertex -3.0 10.0 -3.524958103184872e-16
    vertex -3.0 0.0 -3.524958103184872e-16
  endloop
endfacet
facet normal 0.0 -0.0 1.0
  outer loop
    vertex -3.0 10.0 -3.524958103184872e-16
    vertex 0.0 0.0 -3.524958103184872e-16
    vertex 0.0 10.0 -3.524958103184872e-16
  endloop
endfacet
facet normal 1.0 -0.0 -0.0
  outer loop
    vertex 37.0 10.0 -3.524958103184872e-16
    vertex 37.0 0.0 1.9999999999999998
    vertex 37.0 0.0 -3.524958103184872e-16
  endloop
endfacet
facet normal 1.0 -0.0 -0.0
  outer loop
    vertex 37.0 0.0 1.9999999999999998
    vertex 37.0 10.0 -3.524958103184872e-16
    vertex 37.0 10.0 1.9999999999999998
  endloop
endfacet
facet normal 1.0 0.0 0.0
  outer loop
    vertex 40.0 10.0 -1.9999999999999998
    vertex 40.0 0.0 -3.524958103184872e-16
    vertex 40.0 0.0 -1.9999999999999998
  endloop
endfacet
facet normal 1.0 0.0 0.0
  outer loop
    vertex 40.0 0.0 -3.524958103184872e-16
    vertex 40.0 10.0 -1.9999999999999998
    vertex 40.0 10.0 -3.524958103184872e-16
  endloop
endfacet
facet normal 0.0 0.0 1.0
  outer loop
    vertex 40.0 0.0 -3.524958103184872e-16
    vertex 37.0 10.0 -3.524958103184872e-16
    vertex 37.0 0.0 -3.524958103184872e-16
  endloop
endfacet
facet normal 0.0 0.0 1.0
  outer loop
    vertex 37.0 10.0 -3.524958103184872e-16
    vertex 40.0 0.0 -3.524958103184872e-16
    vertex 40.0 10.0 -3.524958103184872e-16
  endloop
endfacet
facet normal 0.0 0.0 -1.0
  outer loop
    vertex 8.5 25.000000000000004 -7.999999999999999
    vertex 17.54737205583712 22.549999999999997 -7.999999999999999
    vertex 8.5 7.000000000000001 -7.999999999999999
  endloop
endfacet
facet normal 0.0 0.0 -1.0
  outer loop
    vertex 17.54737205583712 22.549999999999997 -7.999999999999999
    vertex 8.5 25.000000000000004 -7.999999999999999
    vertex 17.7221825406948 22.777817459305204 -7.999999999999999
  endloop
endfacet
facet normal 0.0 0.0 -1.0
  outer loop
    vertex 17.7221825406948 22.777817459305204 -7.999999999999999
    vertex 8.5 25.000000000000004 -7.999999999999999
    vertex 17.95 22.95262794416288 -7.999999999999999
  endloop
endfacet
facet normal 0.0 0.0 -1.0
  outer loop
    vertex 17.95 22.95262794416288 -7.999999999999999
    vertex 8.5 25.000000000000004 -7.999999999999999
    vertex 18.215299050387227 23.062518408917974 -7.999999999999999
  endloop
endfacet
facet normal 0.0 0.0 -1.0
  outer loop
    vertex 18.215299050387227 23.062518408917974 -7.999999999999999
    vertex 8.5 25.000000000000004 -7.999999999999999
    vertex 28.5 25.000000000000004 -7.999999999999999
  endloop
endfacet
facet normal 0.0 0.0 -1.0
  outer loop
    vertex 8.5 7.000000000000001 -7.999999999999999
    vertex 17.54737205583712 22.549999999999997 -7.999999999999999
    vertex 17.437481591082026 22.284700949612773 -7.999999999999999
  endloop
endfacet
facet normal 0.0 0.0 -1.0
  outer loop
    vertex 8.5 7.000000000000001 -7.999999999999999
    vertex 17.437481591082026 22.284700949612773 -7.999999999999999
    vertex 17.4 22.0 -7.999999999999999
  endloop
endfacet
facet normal 0.0 0.0 -1.0
  outer loop
    vertex 18.215299050387227 23.062518408917974 -7.999999999999999
    vertex 28.5 25.000000000000004 -7.999999999999999
    vertex 18.5 23.1 -7.999999999999999
  endloop
endfacet
facet normal 0.0 0.0 -1.0
  outer loop
    vertex 18.5 23.1 -7.999999999999999
    vertex 28.5 25.000000000000004 -7.999999999999999
    vertex 18.784700949612773 23.062518408917974 -7.999999999999999
  endloop
endfacet
facet normal 0.0 0.0 -1.0
  outer loop
    vertex 18.784700949612773 23.062518408917974 -7.999999999999999
    vertex 28.5 25.000000000000004 -7.999999999999999
    vertex 19.049999999999997 22.95262794416288 -7.999999999999999
  endloop
endfacet
facet normal 0.0 0.0 -1.0
  outer loop
    vertex 19.049999999999997 22.95262794416288 -7.999999999999999
    vertex 28.5 25.000000000000004 -7.999999999999999
    vertex 19.277817459305204 22.7778174593052 -7.999999999999999
  endloop
endfacet
facet normal 0.0 0.0 -1.0
  outer loop
    vertex 19.277817459305204 22.7778174593052 -7.999999999999999
    vertex 28.5 25.000000000000004 -7.999999999999999
    vertex 19.45262794416288 22.549999999999997 -7.999999999999999
  endloop
endfacet
facet normal 0.0 0.0 -1.0
  outer loop
    vertex 19.45262794416288 22.549999999999997 -7.999999999999999
    vertex 28.5 25.000000000000004 -7.999999999999999
    vertex 19.562518408917974 22.284700949612773 -7.999999999999999
  endloop
endfacet
facet normal 0.0 0.0 -1.0
  outer loop
    vertex 19.562518408917974 22.284700949612773 -7.999999999999999
    vertex 28.5 25.000000000000004 -7.999999999999999
    vertex 19.6 22.0 -7.999999999999999
  endloop
endfacet
facet normal 0.0 0.0 -1.0
  outer loop
    vertex 8.5 7.000000000000001 -7.999999999999999
    vertex 17.54737205583712 21.45 -7.999999999999999
    vertex 28.5 7.000000000000001 -7.999999999999999
  endloop
endfacet
facet normal 0.0 0.0 -1.0
  outer loop
    vertex 17.54737205583712 21.45 -7.999999999999999
    vertex 8.5 7.000000000000001 -7.999999999999999
    vertex 17.437481591082026 21.715299050387227 -7.999999999999999
  endloop
endfacet
facet normal 0.0 0.0 -1.0
  outer loop
    vertex 17.437481591082026 21.715299050387227 -7.999999999999999
    vertex 8.5 7.000000000000001 -7.999999999999999
    vertex 17.4 22.0 -7.999999999999999
  endloop
endfacet
facet normal 0.0 0.0 -1.0
  outer loop
    vertex 28.5 7.000000000000001 -7.999999999999999
    vertex 17.54737205583712 21.45 -7.999999999999999
    vertex 17.722182540694796 21.2221825406948 -7.999999999999999
  endloop
endfacet
facet normal 0.0 0.0 -1.0
  outer loop
    vertex 28.5 7.000000000000001 -7.999999999999999
    vertex 17.722182540694796 21.2221825406948 -7.999999999999999
    vertex 17.95 21.047372055837116 -7.999999999999999
  endloop
endfacet
facet normal 0.0 0.0 -1.0
  outer loop
    vertex 28.5 7.000000000000001 -7.999999999999999
    vertex 17.95 21.047372055837116 -7.999999999999999
    vertex 18.215299050387227 20.937481591082026 -7.999999999999999
  endloop
endfacet
facet normal 0.0 0.0 -1.0
  outer loop
    vertex 28.5 7.000000000000001 -7.999999999999999
    vertex 18.215299050387227 20.937481591082026 -7.999999999999999
    vertex 18.5 20.9 -7.999999999999999
  endloop
endfacet
facet normal 0.0 0.0 -1.0
  outer loop
    vertex 28.5 7.000000000000001 -7.999999999999999
    vertex 18.5 20.9 -7.999999999999999
    vertex 18.784700949612773 20.937481591082026 -7.999999999999999
  endloop
endfacet
facet normal 0.0 0.0 -1.0
  outer loop
    vertex 28.5 7.000000000000001 -7.999999999999999
    vertex 18.784700949612773 20.937481591082026 -7.999999999999999
    vertex 19.049999999999997 21.047372055837116 -7.999999999999999
  endloop
endfacet
facet normal 0.0 0.0 -1.0
  outer loop
    vertex 28.5 7.000000000000001 -7.999999999999999
    vertex 19.049999999999997 21.047372055837116 -7.999999999999999
    vertex 19.2778174593052 21.222182540694796 -7.999999999999999
  endloop
endfacet
facet normal 0.0 0.0 -1.0
  outer loop
    vertex 28.5 7.000000000000001 -7.999999999999999
    vertex 19.2778174593052 21.222182540694796 -7.999999999999999
    vertex 19.45262794416288 21.449999999999996 -7.999999999999999
  endloop
endfacet
facet normal 0.0 0.0 -1.0
  outer loop
    vertex 28.5 7.000000000000001 -7.999999999999999
    vertex 19.45262794416288 21.449999999999996 -7.999999999999999
    vertex 19.562518408917974 21.715299050387227 -7.999999999999999
  endloop
endfacet
facet normal 0.0 0.0 -1.0
  outer loop
    vertex 28.5 7.000000000000001 -7.999999999999999
    vertex 19.562518408917974 21.715299050387227 -7.999999999999999
    vertex 19.6 22.0 -7.999999999999999
  endloop
endfacet
facet normal 0.0 0.0 -1.0
  outer loop
    vertex 28.5 7.000000000000001 -7.999999999999999
    vertex 19.6 22.0 -7.999999999999999
    vertex 28.5 25.000000000000004 -7.999999999999999
  endloop
endfacet
facet normal -0.0 -1.0 -0.0
  outer loop
    vertex 28.5 7.000000000000001 0.0
    vertex 8.5 7.000000000000001 -7.999999999999999
    vertex 28.5 7.000000000000001 -7.999999999999999
  endloop
endfacet
facet normal -0.0 -1.0 -0.0
  outer loop
    vertex 8.5 7.000000000000001 -7.999999999999999
    vertex 28.5 7.000000000000001 0.0
    vertex 8.5 7.000000000000001 0.0
  endloop
endfacet
facet normal -1.0 0.0 0.0
  outer loop
    vertex 8.5 9.0 0.0
    vertex 8.5 7.000000000000001 -7.999999999999999
    vertex 8.5 7.000000000000001 0.0
  endloop
endfacet
facet normal -1.0 0.0 0.0
  outer loop
    vertex 8.5 7.000000000000001 -7.999999999999999
    vertex 8.5 9.0 0.0
    vertex 8.5 9.0 -5.999999999999999
  endloop
endfacet
facet normal -1.0 0.0 0.0
  outer loop
    vertex 8.5 7.000000000000001 -7.999999999999999
    vertex 8.5 9.0 -5.999999999999999
    vertex 8.5 25.000000000000004 -7.999999999999999
  endloop
endfacet
facet normal -1.0 0.0 0.0
  outer loop
    vertex 8.5 25.000000000000004 -7.999999999999999
    vertex 8.5 9.0 -5.999999999999999
    vertex 8.5 25.000000000000004 -5.999999999999999
  endloop
endfacet
facet normal -0.0 1.0 -0.0
  outer loop
    vertex 8.5 9.0 0.0
    vertex 28.5 9.0 -5.999999999999999
    vertex 8.5 9.0 -5.999999999999999
  endloop
endfacet
facet normal -0.0 1.0 -0.0
  outer loop
    vertex 28.5 9.0 -5.999999999999999
    vertex 8.5 9.0 0.0
    vertex 28.5 9.0 0.0
  endloop
endfacet
facet normal 1.0 -0.0 -0.0
  outer loop
    vertex 28.5 7.000000000000001 -7.999999999999999
    vertex 28.5 9.0 -5.999999999999999
    vertex 28.5 7.000000000000001 0.0
  endloop
endfacet
facet normal 1.0 -0.0 -0.0
  outer loop
    vertex 28.5 9.0 -5.999999999999999
    vertex 28.5 7.000000000000001 -7.999999999999999
    vertex 28.5 25.000000000000004 -7.999999999999999
  endloop
endfacet
facet normal 1.0 -0.0 -0.0
  outer loop
    vertex 28.5 9.0 -5.999999999999999
    vertex 28.5 25.000000000000004 -7.999999999999999
    vertex 28.5 25.000000000000004 -5.999999999999999
  endloop
endfacet
facet normal 1.0 -0.0 -0.0
  outer loop
    vertex 28.5 9.0 0.0
    vertex 28.5 7.000000000000001 0.0
    vertex 28.5 9.0 -5.999999999999999
  endloop
endfacet
facet normal 0.0 1.0 0.0
  outer loop
    vertex 8.5 25.000000000000004 -5.999999999999999
    vertex 28.5 25.000000000000004 -7.999999999999999
    vertex 8.5 25.000000000000004 -7.999999999999999
  endloop
endfacet
facet normal 0.0 1.0 0.0
  outer loop
    vertex 28.5 25.000000000000004 -7.999999999999999
    vertex 8.5 25.000000000000004 -5.999999999999999
    vertex 28.5 25.000000000000004 -5.999999999999999
  endloop
endfacet
facet normal -0.0 0.0 1.0
  outer loop
    vertex 28.5 9.0 -5.999999999999999
    vertex 8.5 25.000000000000004 -5.999999999999999
    vertex 8.5 9.0 -5.999999999999999
  endloop
endfacet
facet normal -0.0 0.0 1.0
  outer loop
    vertex 8.5 25.000000000000004 -5.999999999999999
    vertex 28.5 9.0 -5.999999999999999
    vertex 17.722182540694796 21.2221825406948 -6.0
  endloop
endfacet
facet normal -0.0 0.0 1.0
  outer loop
    vertex 8.5 25.000000000000004 -5.999999999999999
    vertex 17.722182540694796 21.2221825406948 -6.0
    vertex 17.54737205583712 21.45 -6.0
  endloop
endfacet
facet normal -0.0 0.0 1.0
  outer loop
    vertex 8.5 25.000000000000004 -5.999999999999999
    vertex 17.54737205583712 21.45 -6.0
    vertex 17.437481591082026 21.715299050387227 -6.0
  endloop
endfacet
facet normal -0.0 0.0 1.0
  outer loop
    vertex 8.5 25.000000000000004 -5.999999999999999
    vertex 17.437481591082026 21.715299050387227 -6.0
    vertex 17.4 22.0 -6.0
  endloop
endfacet
facet normal -0.0 0.0 1.0
  outer loop
    vertex 17.722182540694796 21.2221825406948 -6.0
    vertex 28.5 9.0 -5.999999999999999
    vertex 17.95 21.047372055837116 -6.0
  endloop
endfacet
facet normal -0.0 0.0 1.0
  outer loop
    vertex 17.95 21.047372055837116 -6.0
    vertex 28.5 9.0 -5.999999999999999
    vertex 18.215299050387227 20.937481591082026 -6.0
  endloop
endfacet
facet normal -0.0 0.0 1.0
  outer loop
    vertex 18.215299050387227 20.937481591082026 -6.0
    vertex 28.5 9.0 -5.999999999999999
    vertex 18.5 20.9 -6.0
  endloop
endfacet
facet normal -0.0 0.0 1.0
  outer loop
    vertex 18.5 20.9 -6.0
    vertex 28.5 9.0 -5.999999999999999
    vertex 18.784700949612773 20.937481591082026 -6.0
  endloop
endfacet
facet normal -0.0 0.0 1.0
  outer loop
    vertex 18.784700949612773 20.937481591082026 -6.0
    vertex 28.5 9.0 -5.999999999999999
    vertex 19.049999999999997 21.047372055837116 -6.0
  endloop
endfacet
facet normal -0.0 0.0 1.0
  outer loop
    vertex 19.049999999999997 21.047372055837116 -6.0
    vertex 28.5 9.0 -5.999999999999999
    vertex 19.2778174593052 21.222182540694796 -6.0
  endloop
endfacet
facet normal -0.0 0.0 1.0
  outer loop
    vertex 19.2778174593052 21.222182540694796 -6.0
    vertex 28.5 9.0 -5.999999999999999
    vertex 19.45262794416288 21.449999999999996 -6.0
  endloop
endfacet
facet normal -0.0 0.0 1.0
  outer loop
    vertex 19.45262794416288 21.449999999999996 -6.0
    vertex 28.5 9.0 -5.999999999999999
    vertex 19.562518408917974 21.715299050387227 -6.0
  endloop
endfacet
facet normal -0.0 0.0 1.0
  outer loop
    vertex 19.562518408917974 21.715299050387227 -6.0
    vertex 28.5 9.0 -5.999999999999999
    vertex 19.6 22.0 -6.0
  endloop
endfacet
facet normal -0.0 0.0 1.0
  outer loop
    vertex 8.5 25.000000000000004 -5.999999999999999
    vertex 18.215299050387227 23.062518408917974 -6.0
    vertex 28.5 25.000000000000004 -5.999999999999999
  endloop
endfacet
facet normal -0.0 0.0 1.0
  outer loop
    vertex 18.215299050387227 23.062518408917974 -6.0
    vertex 8.5 25.000000000000004 -5.999999999999999
    vertex 17.95 22.95262794416288 -6.0
  endloop
endfacet
facet normal -0.0 0.0 1.0
  outer loop
    vertex 17.95 22.95262794416288 -6.0
    vertex 8.5 25.000000000000004 -5.999999999999999
    vertex 17.7221825406948 22.777817459305204 -6.0
  endloop
endfacet
facet normal -0.0 0.0 1.0
  outer loop
    vertex 17.7221825406948 22.777817459305204 -6.0
    vertex 8.5 25.000000000000004 -5.999999999999999
    vertex 17.54737205583712 22.549999999999997 -6.0
  endloop
endfacet
facet normal -0.0 0.0 1.0
  outer loop
    vertex 17.54737205583712 22.549999999999997 -6.0
    vertex 8.5 25.000000000000004 -5.999999999999999
    vertex 17.437481591082026 22.284700949612773 -6.0
  endloop
endfacet
facet normal -0.0 0.0 1.0
  outer loop
    vertex 17.437481591082026 22.284700949612773 -6.0
    vertex 8.5 25.000000000000004 -5.999999999999999
    vertex 17.4 22.0 -6.0
  endloop
endfacet
facet normal -0.0 0.0 1.0
  outer loop
    vertex 28.5 25.000000000000004 -5.999999999999999
    vertex 18.215299050387227 23.062518408917974 -6.0
    vertex 18.5 23.1 -6.0
  endloop
endfacet
facet normal -0.0 0.0 1.0
  outer loop
    vertex 28.5 25.000000000000004 -5.999999999999999
    vertex 18.5 23.1 -6.0
    vertex 18.784700949612773 23.062518408917974 -6.0
  endloop
endfacet
facet normal -0.0 0.0 1.0
  outer loop
    vertex 28.5 25.000000000000004 -5.999999999999999
    vertex 18.784700949612773 23.062518408917974 -6.0
    vertex 19.049999999999997 22.95262794416288 -6.0
  endloop
endfacet
facet normal -0.0 0.0 1.0
  outer loop
    vertex 28.5 25.000000000000004 -5.999999999999999
    vertex 19.049999999999997 22.95262794416288 -6.0
    vertex 19.277817459305204 22.7778174593052 -6.0
  endloop
endfacet
facet normal -0.0 0.0 1.0
  outer loop
    vertex 28.5 25.000000000000004 -5.999999999999999
    vertex 19.277817459305204 22.7778174593052 -6.0
    vertex 19.45262794416288 22.549999999999997 -6.0
  endloop
endfacet
facet normal -0.0 0.0 1.0
  outer loop
    vertex 28.5 25.000000000000004 -5.999999999999999
    vertex 19.45262794416288 22.549999999999997 -6.0
    vertex 19.562518408917974 22.284700949612773 -6.0
  endloop
endfacet
facet normal -0.0 0.0 1.0
  outer loop
    vertex 28.5 25.000000000000004 -5.999999999999999
    vertex 19.562518408917974 22.284700949612773 -6.0
    vertex 19.6 22.0 -6.0
  endloop
endfacet
facet normal -0.0 0.0 1.0
  outer loop
    vertex 28.5 25.000000000000004 -5.999999999999999
    vertex 19.6 22.0 -6.0
    vertex 28.5 9.0 -5.999999999999999
  endloop
endfacet
facet normal -0.923879532511288 0.3826834323650871 -0.0
  outer loop
    vertex 19.562518408917974 21.715299050387227 -6.0
    vertex 19.45262794416288 21.449999999999996 -7.999999999999999
    vertex 19.45262794416288 21.449999999999996 -6.0
  endloop
endfacet
facet normal -0.923879532511288 0.3826834323650871 -0.0
  outer loop
    vertex 19.45262794416288 21.449999999999996 -7.999999999999999
    vertex 19.562518408917974 21.715299050387227 -6.0
    vertex 19.562518408917974 21.715299050387227 -7.999999999999999
  endloop
endfacet
facet normal -0.7933533402912331 0.6087614290087233 -0.0
  outer loop
    vertex 19.45262794416288 21.449999999999996 -6.0
    vertex 19.2778174593052 21.222182540694796 -7.999999999999999
    vertex 19.2778174593052 21.222182540694796 -6.0
  endloop
endfacet
facet normal -0.7933533402912331 0.6087614290087233 -0.0
  outer loop
    vertex 19.2778174593052 21.222182540694796 -7.999999999999999
    vertex 19.45262794416288 21.449999999999996 -6.0
    vertex 19.45262794416288 21.449999999999996 -7.999999999999999
  endloop
endfacet
facet normal -0.6087614290087172 0.7933533402912379 -0.0
  outer loop
    vertex 19.049999999999997 21.047372055837116 -6.0
    vertex 19.2778174593052 21.222182540694796 -7.999999999999999
    vertex 19.049999999999997 21.047372055837116 -7.999999999999999
  endloop
endfacet
facet normal -0.6087614290087172 0.7933533402912379 -0.0
  outer loop
    vertex 19.2778174593052 21.222182540694796 -7.999999999999999
    vertex 19.049999999999997 21.047372055837116 -6.0
    vertex 19.2778174593052 21.222182540694796 -6.0
  endloop
endfacet
facet normal -0.38268343236509056 0.9238795325112865 -0.0
  outer loop
    vertex 18.784700949612773 20.937481591082026 -6.0
    vertex 19.049999999999997 21.047372055837116 -7.999999999999999
    vertex 18.784700949612773 20.937481591082026 -7.999999999999999
  endloop
endfacet
facet normal -0.38268343236509056 0.9238795325112865 -0.0
  outer loop
    vertex 19.049999999999997 21.047372055837116 -7.999999999999999
    vertex 18.784700949612773 20.937481591082026 -6.0
    vertex 19.049999999999997 21.047372055837116 -6.0
  endloop
endfacet
facet normal -0.1305261922200573 0.9914448613738097 -0.0
  outer loop
    vertex 18.5 20.9 -6.0
    vertex 18.784700949612773 20.937481591082026 -7.999999999999999
    vertex 18.5 20.9 -7.999999999999999
  endloop
endfacet
facet normal -0.1305261922200573 0.9914448613738097 -0.0
  outer loop
    vertex 18.784700949612773 20.937481591082026 -7.999999999999999
    vertex 18.5 20.9 -6.0
    vertex 18.784700949612773 20.937481591082026 -6.0
  endloop
endfacet
facet normal 0.1305261922200573 0.9914448613738097 0.0
  outer loop
    vertex 18.215299050387227 20.937481591082026 -6.0
    vertex 18.5 20.9 -7.999999999999999
    vertex 18.215299050387227 20.937481591082026 -7.999999999999999
  endloop
endfacet
facet normal 0.1305261922200573 0.9914448613738097 0.0
  outer loop
    vertex 18.5 20.9 -7.999999999999999
    vertex 18.215299050387227 20.937481591082026 -6.0
    vertex 18.5 20.9 -6.0
  endloop
endfacet
facet normal 0.3826834323650871 0.923879532511288 0.0
  outer loop
    vertex 17.95 21.047372055837116 -6.0
    vertex 18.215299050387227 20.937481591082026 -7.999999999999999
    vertex 17.95 21.047372055837116 -7.999999999999999
  endloop
endfacet
facet normal 0.3826834323650871 0.923879532511288 0.0
  outer loop
    vertex 18.215299050387227 20.937481591082026 -7.999999999999999
    vertex 17.95 21.047372055837116 -6.0
    vertex 18.215299050387227 20.937481591082026 -6.0
  endloop
endfacet
facet normal 0.6087614290087233 0.7933533402912331 0.0
  outer loop
    vertex 17.722182540694796 21.2221825406948 -6.0
    vertex 17.95 21.047372055837116 -7.999999999999999
    vertex 17.722182540694796 21.2221825406948 -7.999999999999999
  endloop
endfacet
facet normal 0.6087614290087233 0.7933533402912331 0.0
  outer loop
    vertex 17.95 21.047372055837116 -7.999999999999999
    vertex 17.722182540694796 21.2221825406948 -6.0
    vertex 17.95 21.047372055837116 -6.0
  endloop
endfacet
facet normal 0.7933533402912379 0.6087614290087172 0.0
  outer loop
    vertex 17.54737205583712 21.45 -7.999999999999999
    vertex 17.722182540694796 21.2221825406948 -6.0
    vertex 17.722182540694796 21.2221825406948 -7.999999999999999
  endloop
endfacet
facet normal 0.7933533402912379 0.6087614290087172 0.0
  outer loop
    vertex 17.722182540694796 21.2221825406948 -6.0
    vertex 17.54737205583712 21.45 -7.999999999999999
    vertex 17.54737205583712 21.45 -6.0
  endloop
endfacet
facet normal 0.9238795325112865 0.38268343236509056 0.0
  outer loop
    vertex 17.437481591082026 21.715299050387227 -7.999999999999999
    vertex 17.54737205583712 21.45 -6.0
    vertex 17.54737205583712 21.45 -7.999999999999999
  endloop
endfacet
facet normal 0.9238795325112865 0.38268343236509056 0.0
  outer loop
    vertex 17.54737205583712 21.45 -6.0
    vertex 17.437481591082026 21.715299050387227 -7.999999999999999
    vertex 17.437481591082026 21.715299050387227 -6.0
  endloop
endfacet
facet normal 0.9914448613738097 0.1305261922200573 0.0
  outer loop
    vertex 17.4 22.0 -7.999999999999999
    vertex 17.437481591082026 21.715299050387227 -6.0
    vertex 17.437481591082026 21.715299050387227 -7.999999999999999
  endloop
endfacet
facet normal 0.9914448613738097 0.1305261922200573 0.0
  outer loop
    vertex 17.437481591082026 21.715299050387227 -6.0
    vertex 17.4 22.0 -7.999999999999999
    vertex 17.4 22.0 -6.0
  endloop
endfacet
facet normal 0.9914448613738097 -0.1305261922200573 -0.0
  outer loop
    vertex 17.437481591082026 22.284700949612773 -7.999999999999999
    vertex 17.4 22.0 -6.0
    vertex 17.4 22.0 -7.999999999999999
  endloop
endfacet
facet normal 0.9914448613738097 -0.1305261922200573 -0.0
  outer loop
    vertex 17.4 22.0 -6.0
    vertex 17.437481591082026 22.284700949612773 -7.999999999999999
    vertex 17.437481591082026 22.284700949612773 -6.0
  endloop
endfacet
facet normal 0.9238795325112865 -0.38268343236509056 -0.0
  outer loop
    vertex 17.54737205583712 22.549999999999997 -7.999999999999999
    vertex 17.437481591082026 22.284700949612773 -6.0
    vertex 17.437481591082026 22.284700949612773 -7.999999999999999
  endloop
endfacet
facet normal 0.9238795325112865 -0.38268343236509056 -0.0
  outer loop
    vertex 17.437481591082026 22.284700949612773 -6.0
    vertex 17.54737205583712 22.549999999999997 -7.999999999999999
    vertex 17.54737205583712 22.549999999999997 -6.0
  endloop
endfacet
facet normal 0.7933533402912369 -0.6087614290087187 -0.0
  outer loop
    vertex 17.7221825406948 22.777817459305204 -7.999999999999999
    vertex 17.54737205583712 22.549999999999997 -6.0
    vertex 17.54737205583712 22.549999999999997 -7.999999999999999
  endloop
endfacet
facet normal 0.7933533402912369 -0.6087614290087187 -0.0
  outer loop
    vertex 17.54737205583712 22.549999999999997 -6.0
    vertex 17.7221825406948 22.777817459305204 -7.999999999999999
    vertex 17.7221825406948 22.777817459305204 -6.0
  endloop
endfacet
facet normal 0.6087614290087172 -0.7933533402912379 -0.0
  outer loop
    vertex 17.95 22.95262794416288 -6.0
    vertex 17.7221825406948 22.777817459305204 -7.999999999999999
    vertex 17.95 22.95262794416288 -7.999999999999999
  endloop
endfacet
facet normal 0.6087614290087172 -0.7933533402912379 -0.0
  outer loop
    vertex 17.7221825406948 22.777817459305204 -7.999999999999999
    vertex 17.95 22.95262794416288 -6.0
    vertex 17.7221825406948 22.777817459305204 -6.0
  endloop
endfacet
facet normal 0.38268343236509056 -0.9238795325112865 -0.0
  outer loop
    vertex 18.215299050387227 23.062518408917974 -6.0
    vertex 17.95 22.95262794416288 -7.999999999999999
    vertex 18.215299050387227 23.062518408917974 -7.999999999999999
  endloop
endfacet
facet normal 0.38268343236509056 -0.9238795325112865 -0.0
  outer loop
    vertex 17.95 22.95262794416288 -7.999999999999999
    vertex 18.215299050387227 23.062518408917974 -6.0
    vertex 17.95 22.95262794416288 -6.0
  endloop
endfacet
facet normal 0.1305261922200573 -0.9914448613738097 -0.0
  outer loop
    vertex 18.5 23.1 -6.0
    vertex 18.215299050387227 23.062518408917974 -7.999999999999999
    vertex 18.5 23.1 -7.999999999999999
  endloop
endfacet
facet normal 0.1305261922200573 -0.9914448613738097 -0.0
  outer loop
    vertex 18.215299050387227 23.062518408917974 -7.999999999999999
    vertex 18.5 23.1 -6.0
    vertex 18.215299050387227 23.062518408917974 -6.0
  endloop
endfacet
facet normal -0.1305261922200573 -0.9914448613738097 -0.0
  outer loop
    vertex 18.784700949612773 23.062518408917974 -6.0
    vertex 18.5 23.1 -7.999999999999999
    vertex 18.784700949612773 23.062518408917974 -7.999999999999999
  endloop
endfacet
facet normal -0.1305261922200573 -0.9914448613738097 -0.0
  outer loop
    vertex 18.5 23.1 -7.999999999999999
    vertex 18.784700949612773 23.062518408917974 -6.0
    vertex 18.5 23.1 -6.0
  endloop
endfacet
facet normal -0.38268343236509056 -0.9238795325112865 -0.0
  outer loop
    vertex 19.049999999999997 22.95262794416288 -6.0
    vertex 18.784700949612773 23.062518408917974 -7.999999999999999
    vertex 19.049999999999997 22.95262794416288 -7.999999999999999
  endloop
endfacet
facet normal -0.38268343236509056 -0.9238795325112865 -0.0
  outer loop
    vertex 18.784700949612773 23.062518408917974 -7.999999999999999
    vertex 19.049999999999997 22.95262794416288 -6.0
    vertex 18.784700949612773 23.062518408917974 -6.0
  endloop
endfacet
facet normal -0.6087614290087187 -0.7933533402912369 -0.0
  outer loop
    vertex 19.277817459305204 22.7778174593052 -6.0
    vertex 19.049999999999997 22.95262794416288 -7.999999999999999
    vertex 19.277817459305204 22.7778174593052 -7.999999999999999
  endloop
endfacet
facet normal -0.6087614290087187 -0.7933533402912369 -0.0
  outer loop
    vertex 19.049999999999997 22.95262794416288 -7.999999999999999
    vertex 19.277817459305204 22.7778174593052 -6.0
    vertex 19.049999999999997 22.95262794416288 -6.0
  endloop
endfacet
facet normal -0.7933533402912379 -0.6087614290087172 -0.0
  outer loop
    vertex 19.277817459305204 22.7778174593052 -6.0
    vertex 19.45262794416288 22.549999999999997 -7.999999999999999
    vertex 19.45262794416288 22.549999999999997 -6.0
  endloop
endfacet
facet normal -0.7933533402912379 -0.6087614290087172 -0.0
  outer loop
    vertex 19.45262794416288 22.549999999999997 -7.999999999999999
    vertex 19.277817459305204 22.7778174593052 -6.0
    vertex 19.277817459305204 22.7778174593052 -7.999999999999999
  endloop
endfacet
facet normal -0.9238795325112865 -0.38268343236509056 -0.0
  outer loop
    vertex 19.45262794416288 22.549999999999997 -6.0
    vertex 19.562518408917974 22.284700949612773 -7.999999999999999
    vertex 19.562518408917974 22.284700949612773 -6.0
  endloop
endfacet
facet normal -0.9238795325112865 -0.38268343236509056 -0.0
  outer loop
    vertex 19.562518408917974 22.284700949612773 -7.999999999999999
    vertex 19.45262794416288 22.549999999999997 -6.0
    vertex 19.45262794416288 22.549999999999997 -7.999999999999999
  endloop
endfacet
facet normal -0.9914448613738097 -0.1305261922200573 -0.0
  outer loop
    vertex 19.562518408917974 22.284700949612773 -6.0
    vertex 19.6 22.0 -7.999999999999999
    vertex 19.6 22.0 -6.0
  endloop
endfacet
facet normal -0.9914448613738097 -0.1305261922200573 -0.0
  outer loop
    vertex 19.6 22.0 -7.999999999999999
    vertex 19.562518408917974 22.284700949612773 -6.0
    vertex 19.562518408917974 22.284700949612773 -7.999999999999999
  endloop
endfacet
facet normal -0.9914448613738097 0.1305261922200573 -0.0
  outer loop
    vertex 19.6 22.0 -6.0
    vertex 19.562518408917974 21.715299050387227 -7.999999999999999
    vertex 19.562518408917974 21.715299050387227 -6.0
  endloop
endfacet
facet normal -0.9914448613738097 0.1305261922200573 -0.0
  outer loop
    vertex 19.562518408917974 21.715299050387227 -7.999999999999999
    vertex 19.6 22.0 -6.0
    vertex 19.6 22.0 -7.999999999999999
  endloop
endfacet
endsolid CM1 - Bottom inlet
